<mxfile host="app.diagrams.net" modified="2022-09-29T12:36:23.535Z" agent="5.0 (Windows NT 10.0; Win64; x64) AppleWebKit/537.36 (KHTML, like Gecko) Chrome/105.0.0.0 Safari/537.36" etag="c2anyBQN5eA9cObMIz0n" version="20.3.7" type="github">
  <diagram id="C5RBs43oDa-KdzZeNtuy" name="Page-1">
    <mxGraphModel dx="5540" dy="3713" grid="0" gridSize="10" guides="1" tooltips="1" connect="1" arrows="1" fold="1" page="0" pageScale="1" pageWidth="827" pageHeight="1169" math="0" shadow="0">
      <root>
        <mxCell id="WIyWlLk6GJQsqaUBKTNV-0" />
        <mxCell id="WIyWlLk6GJQsqaUBKTNV-1" parent="WIyWlLk6GJQsqaUBKTNV-0" />
        <mxCell id="c_D3GYiyTXU1Lb1RWGgn-26" style="edgeStyle=orthogonalEdgeStyle;rounded=0;orthogonalLoop=1;jettySize=auto;html=1;exitX=0.92;exitY=0.5;exitDx=0;exitDy=0;exitPerimeter=0;entryX=-0.006;entryY=0.558;entryDx=0;entryDy=0;entryPerimeter=0;" edge="1" parent="WIyWlLk6GJQsqaUBKTNV-1" source="c_D3GYiyTXU1Lb1RWGgn-4" target="c_D3GYiyTXU1Lb1RWGgn-22">
          <mxGeometry relative="1" as="geometry">
            <Array as="points">
              <mxPoint x="118" y="378" />
              <mxPoint x="217" y="378" />
            </Array>
          </mxGeometry>
        </mxCell>
        <mxCell id="c_D3GYiyTXU1Lb1RWGgn-4" value="" style="sketch=0;aspect=fixed;pointerEvents=1;shadow=0;dashed=0;html=1;strokeColor=none;labelPosition=center;verticalLabelPosition=bottom;verticalAlign=top;align=center;fillColor=#00188D;shape=mxgraph.azure.laptop" vertex="1" parent="WIyWlLk6GJQsqaUBKTNV-1">
          <mxGeometry x="34" y="362.4" width="91" height="54.6" as="geometry" />
        </mxCell>
        <mxCell id="c_D3GYiyTXU1Lb1RWGgn-12" style="edgeStyle=orthogonalEdgeStyle;rounded=0;orthogonalLoop=1;jettySize=auto;html=1;exitX=0.25;exitY=0;exitDx=0;exitDy=0;entryX=0.28;entryY=0.99;entryDx=0;entryDy=0;entryPerimeter=0;" edge="1" parent="WIyWlLk6GJQsqaUBKTNV-1" source="c_D3GYiyTXU1Lb1RWGgn-5" target="c_D3GYiyTXU1Lb1RWGgn-7">
          <mxGeometry relative="1" as="geometry" />
        </mxCell>
        <mxCell id="c_D3GYiyTXU1Lb1RWGgn-5" value="" style="aspect=fixed;perimeter=ellipsePerimeter;html=1;align=center;shadow=0;dashed=0;spacingTop=3;image;image=img/lib/active_directory/database_server.svg;" vertex="1" parent="WIyWlLk6GJQsqaUBKTNV-1">
          <mxGeometry x="475" y="548" width="79.54" height="97" as="geometry" />
        </mxCell>
        <mxCell id="c_D3GYiyTXU1Lb1RWGgn-11" style="edgeStyle=orthogonalEdgeStyle;rounded=0;orthogonalLoop=1;jettySize=auto;html=1;exitX=0.5;exitY=1;exitDx=0;exitDy=0;exitPerimeter=0;entryX=0.412;entryY=-0.052;entryDx=0;entryDy=0;entryPerimeter=0;" edge="1" parent="WIyWlLk6GJQsqaUBKTNV-1" source="c_D3GYiyTXU1Lb1RWGgn-7" target="c_D3GYiyTXU1Lb1RWGgn-5">
          <mxGeometry relative="1" as="geometry" />
        </mxCell>
        <mxCell id="c_D3GYiyTXU1Lb1RWGgn-102" style="edgeStyle=orthogonalEdgeStyle;rounded=0;orthogonalLoop=1;jettySize=auto;html=1;exitX=0.005;exitY=0.63;exitDx=0;exitDy=0;exitPerimeter=0;entryX=0.982;entryY=0.54;entryDx=0;entryDy=0;entryPerimeter=0;fontSize=12;" edge="1" parent="WIyWlLk6GJQsqaUBKTNV-1" source="c_D3GYiyTXU1Lb1RWGgn-7" target="c_D3GYiyTXU1Lb1RWGgn-93">
          <mxGeometry relative="1" as="geometry" />
        </mxCell>
        <mxCell id="c_D3GYiyTXU1Lb1RWGgn-7" value="" style="sketch=0;html=1;dashed=0;whitespace=wrap;fillColor=#2875E2;strokeColor=#ffffff;points=[[0.005,0.63,0],[0.1,0.2,0],[0.9,0.2,0],[0.5,0,0],[0.995,0.63,0],[0.72,0.99,0],[0.5,1,0],[0.28,0.99,0]];shape=mxgraph.kubernetes.icon;prIcon=api" vertex="1" parent="WIyWlLk6GJQsqaUBKTNV-1">
          <mxGeometry x="483" y="362.40000000000003" width="50" height="48" as="geometry" />
        </mxCell>
        <mxCell id="c_D3GYiyTXU1Lb1RWGgn-16" value="Request" style="text;html=1;strokeColor=none;fillColor=none;align=center;verticalAlign=middle;whiteSpace=wrap;rounded=0;" vertex="1" parent="WIyWlLk6GJQsqaUBKTNV-1">
          <mxGeometry x="418" y="362.4" width="60" height="30" as="geometry" />
        </mxCell>
        <mxCell id="c_D3GYiyTXU1Lb1RWGgn-17" value="JSON response" style="text;html=1;strokeColor=none;fillColor=none;align=center;verticalAlign=middle;whiteSpace=wrap;rounded=0;" vertex="1" parent="WIyWlLk6GJQsqaUBKTNV-1">
          <mxGeometry x="279.40000000000003" y="399.70000000000005" width="89" height="30" as="geometry" />
        </mxCell>
        <mxCell id="c_D3GYiyTXU1Lb1RWGgn-19" value="SQL Request" style="text;html=1;strokeColor=none;fillColor=none;align=center;verticalAlign=middle;whiteSpace=wrap;rounded=0;rotation=-90;" vertex="1" parent="WIyWlLk6GJQsqaUBKTNV-1">
          <mxGeometry x="474.23" y="452" width="84.23" height="30" as="geometry" />
        </mxCell>
        <mxCell id="c_D3GYiyTXU1Lb1RWGgn-20" value="Resources" style="text;html=1;strokeColor=none;fillColor=none;align=center;verticalAlign=middle;whiteSpace=wrap;rounded=0;rotation=-90;" vertex="1" parent="WIyWlLk6GJQsqaUBKTNV-1">
          <mxGeometry x="448" y="458" width="84.23" height="30" as="geometry" />
        </mxCell>
        <mxCell id="c_D3GYiyTXU1Lb1RWGgn-99" style="edgeStyle=orthogonalEdgeStyle;rounded=0;orthogonalLoop=1;jettySize=auto;html=1;fontSize=12;" edge="1" parent="WIyWlLk6GJQsqaUBKTNV-1" source="c_D3GYiyTXU1Lb1RWGgn-22" target="c_D3GYiyTXU1Lb1RWGgn-93">
          <mxGeometry relative="1" as="geometry">
            <Array as="points">
              <mxPoint x="305" y="391" />
              <mxPoint x="305" y="391" />
            </Array>
          </mxGeometry>
        </mxCell>
        <mxCell id="c_D3GYiyTXU1Lb1RWGgn-22" value="" style="points=[];aspect=fixed;html=1;align=center;shadow=0;dashed=0;image;image=img/lib/allied_telesis/computer_and_terminals/Personal_Computer_with_Server.svg;" vertex="1" parent="WIyWlLk6GJQsqaUBKTNV-1">
          <mxGeometry x="217" y="355.8" width="62.400000000000006" height="62.400000000000006" as="geometry" />
        </mxCell>
        <mxCell id="c_D3GYiyTXU1Lb1RWGgn-24" value="WebApp" style="text;html=1;strokeColor=none;fillColor=none;align=center;verticalAlign=middle;whiteSpace=wrap;rounded=0;" vertex="1" parent="WIyWlLk6GJQsqaUBKTNV-1">
          <mxGeometry x="223" y="409" width="60" height="30" as="geometry" />
        </mxCell>
        <mxCell id="c_D3GYiyTXU1Lb1RWGgn-25" value="Client" style="text;html=1;strokeColor=none;fillColor=none;align=center;verticalAlign=middle;whiteSpace=wrap;rounded=0;" vertex="1" parent="WIyWlLk6GJQsqaUBKTNV-1">
          <mxGeometry x="49.5" y="372" width="60" height="30" as="geometry" />
        </mxCell>
        <mxCell id="c_D3GYiyTXU1Lb1RWGgn-27" value="" style="endArrow=classic;html=1;rounded=0;" edge="1" parent="WIyWlLk6GJQsqaUBKTNV-1">
          <mxGeometry width="50" height="50" relative="1" as="geometry">
            <mxPoint x="223" y="402" as="sourcePoint" />
            <mxPoint x="115" y="402" as="targetPoint" />
          </mxGeometry>
        </mxCell>
        <mxCell id="c_D3GYiyTXU1Lb1RWGgn-28" value="Access Request" style="text;strokeColor=none;fillColor=none;align=left;verticalAlign=middle;spacingLeft=4;spacingRight=4;overflow=hidden;points=[[0,0.5],[1,0.5]];portConstraint=eastwest;rotatable=0;" vertex="1" parent="WIyWlLk6GJQsqaUBKTNV-1">
          <mxGeometry x="117" y="355.8" width="100" height="30" as="geometry" />
        </mxCell>
        <mxCell id="c_D3GYiyTXU1Lb1RWGgn-29" value="View" style="text;strokeColor=none;fillColor=none;align=left;verticalAlign=middle;spacingLeft=4;spacingRight=4;overflow=hidden;points=[[0,0.5],[1,0.5]];portConstraint=eastwest;rotatable=0;" vertex="1" parent="WIyWlLk6GJQsqaUBKTNV-1">
          <mxGeometry x="140" y="379" width="100" height="30" as="geometry" />
        </mxCell>
        <mxCell id="c_D3GYiyTXU1Lb1RWGgn-30" value="" style="rounded=0;whiteSpace=wrap;html=1;" vertex="1" parent="WIyWlLk6GJQsqaUBKTNV-1">
          <mxGeometry x="825" y="376" width="1916" height="1836" as="geometry" />
        </mxCell>
        <mxCell id="c_D3GYiyTXU1Lb1RWGgn-31" value="&lt;font style=&quot;font-size: 23px;&quot;&gt;MCT&lt;/font&gt;" style="text;html=1;strokeColor=none;fillColor=none;align=center;verticalAlign=middle;whiteSpace=wrap;rounded=0;" vertex="1" parent="WIyWlLk6GJQsqaUBKTNV-1">
          <mxGeometry x="825" y="339.7" width="91" height="36.3" as="geometry" />
        </mxCell>
        <mxCell id="c_D3GYiyTXU1Lb1RWGgn-32" value="" style="sketch=0;html=1;dashed=0;whitespace=wrap;fillColor=#2875E2;strokeColor=#ffffff;points=[[0.005,0.63,0],[0.1,0.2,0],[0.9,0.2,0],[0.5,0,0],[0.995,0.63,0],[0.72,0.99,0],[0.5,1,0],[0.28,0.99,0]];shape=mxgraph.kubernetes.icon;prIcon=api;fontSize=23;" vertex="1" parent="WIyWlLk6GJQsqaUBKTNV-1">
          <mxGeometry x="-202.5" y="937.3" width="50" height="48" as="geometry" />
        </mxCell>
        <mxCell id="c_D3GYiyTXU1Lb1RWGgn-33" value="" style="sketch=0;aspect=fixed;pointerEvents=1;shadow=0;dashed=0;html=1;strokeColor=none;labelPosition=center;verticalLabelPosition=bottom;verticalAlign=top;align=center;fillColor=#00188D;shape=mxgraph.azure.laptop" vertex="1" parent="WIyWlLk6GJQsqaUBKTNV-1">
          <mxGeometry x="-463" y="818" width="91" height="54.6" as="geometry" />
        </mxCell>
        <mxCell id="c_D3GYiyTXU1Lb1RWGgn-34" value="Client" style="text;html=1;strokeColor=none;fillColor=none;align=center;verticalAlign=middle;whiteSpace=wrap;rounded=0;" vertex="1" parent="WIyWlLk6GJQsqaUBKTNV-1">
          <mxGeometry x="-447.5" y="827.6" width="60" height="30" as="geometry" />
        </mxCell>
        <mxCell id="c_D3GYiyTXU1Lb1RWGgn-35" value="" style="sketch=0;aspect=fixed;pointerEvents=1;shadow=0;dashed=0;html=1;strokeColor=none;labelPosition=center;verticalLabelPosition=bottom;verticalAlign=top;align=center;fillColor=#00188D;shape=mxgraph.azure.laptop" vertex="1" parent="WIyWlLk6GJQsqaUBKTNV-1">
          <mxGeometry x="-460" y="934" width="91" height="54.6" as="geometry" />
        </mxCell>
        <mxCell id="c_D3GYiyTXU1Lb1RWGgn-36" value="Client" style="text;html=1;strokeColor=none;fillColor=none;align=center;verticalAlign=middle;whiteSpace=wrap;rounded=0;" vertex="1" parent="WIyWlLk6GJQsqaUBKTNV-1">
          <mxGeometry x="-444.5" y="942" width="60" height="30" as="geometry" />
        </mxCell>
        <mxCell id="c_D3GYiyTXU1Lb1RWGgn-37" value="" style="sketch=0;aspect=fixed;pointerEvents=1;shadow=0;dashed=0;html=1;strokeColor=none;labelPosition=center;verticalLabelPosition=bottom;verticalAlign=top;align=center;fillColor=#00188D;shape=mxgraph.azure.laptop" vertex="1" parent="WIyWlLk6GJQsqaUBKTNV-1">
          <mxGeometry x="-460" y="1042.4" width="91" height="54.6" as="geometry" />
        </mxCell>
        <mxCell id="c_D3GYiyTXU1Lb1RWGgn-38" value="Client" style="text;html=1;strokeColor=none;fillColor=none;align=center;verticalAlign=middle;whiteSpace=wrap;rounded=0;" vertex="1" parent="WIyWlLk6GJQsqaUBKTNV-1">
          <mxGeometry x="-444.5" y="1052" width="60" height="30" as="geometry" />
        </mxCell>
        <mxCell id="c_D3GYiyTXU1Lb1RWGgn-39" value="" style="aspect=fixed;perimeter=ellipsePerimeter;html=1;align=center;shadow=0;dashed=0;spacingTop=3;image;image=img/lib/active_directory/database_server.svg;" vertex="1" parent="WIyWlLk6GJQsqaUBKTNV-1">
          <mxGeometry x="-56.53999999999999" y="818" width="71.54" height="87.24" as="geometry" />
        </mxCell>
        <mxCell id="c_D3GYiyTXU1Lb1RWGgn-40" value="" style="sketch=0;html=1;dashed=0;whitespace=wrap;fillColor=#2875E2;strokeColor=#ffffff;points=[[0.005,0.63,0],[0.1,0.2,0],[0.9,0.2,0],[0.5,0,0],[0.995,0.63,0],[0.72,0.99,0],[0.5,1,0],[0.28,0.99,0]];shape=mxgraph.kubernetes.icon;prIcon=api;fontSize=23;" vertex="1" parent="WIyWlLk6GJQsqaUBKTNV-1">
          <mxGeometry x="-42" y="1007" width="50" height="48" as="geometry" />
        </mxCell>
        <mxCell id="c_D3GYiyTXU1Lb1RWGgn-47" value="" style="endArrow=classic;startArrow=classic;html=1;rounded=0;fontSize=23;shape=flexArrow;entryX=0.92;entryY=0.5;entryDx=0;entryDy=0;entryPerimeter=0;" edge="1" parent="WIyWlLk6GJQsqaUBKTNV-1" target="c_D3GYiyTXU1Lb1RWGgn-33">
          <mxGeometry width="50" height="50" relative="1" as="geometry">
            <mxPoint x="-185" y="941" as="sourcePoint" />
            <mxPoint x="-330" y="843" as="targetPoint" />
          </mxGeometry>
        </mxCell>
        <mxCell id="c_D3GYiyTXU1Lb1RWGgn-48" value="" style="endArrow=classic;startArrow=classic;html=1;rounded=0;fontSize=23;shape=flexArrow;entryX=0.92;entryY=0.5;entryDx=0;entryDy=0;entryPerimeter=0;exitX=0.07;exitY=0.515;exitDx=0;exitDy=0;exitPerimeter=0;" edge="1" parent="WIyWlLk6GJQsqaUBKTNV-1" source="c_D3GYiyTXU1Lb1RWGgn-32">
          <mxGeometry width="50" height="50" relative="1" as="geometry">
            <mxPoint x="-182.72" y="1056.7" as="sourcePoint" />
            <mxPoint x="-377" y="961" as="targetPoint" />
          </mxGeometry>
        </mxCell>
        <mxCell id="c_D3GYiyTXU1Lb1RWGgn-49" value="" style="endArrow=classic;startArrow=classic;html=1;rounded=0;fontSize=23;shape=flexArrow;entryX=0.92;entryY=0.5;entryDx=0;entryDy=0;entryPerimeter=0;exitX=0.28;exitY=0.99;exitDx=0;exitDy=0;exitPerimeter=0;" edge="1" parent="WIyWlLk6GJQsqaUBKTNV-1" source="c_D3GYiyTXU1Lb1RWGgn-32">
          <mxGeometry width="50" height="50" relative="1" as="geometry">
            <mxPoint x="-181.72" y="1165.7" as="sourcePoint" />
            <mxPoint x="-376" y="1070" as="targetPoint" />
          </mxGeometry>
        </mxCell>
        <mxCell id="c_D3GYiyTXU1Lb1RWGgn-50" value="" style="endArrow=classic;startArrow=classic;html=1;rounded=0;fontSize=23;shape=flexArrow;entryX=0.92;entryY=0.5;entryDx=0;entryDy=0;entryPerimeter=0;exitX=0.008;exitY=0.802;exitDx=0;exitDy=0;exitPerimeter=0;" edge="1" parent="WIyWlLk6GJQsqaUBKTNV-1" source="c_D3GYiyTXU1Lb1RWGgn-39">
          <mxGeometry width="50" height="50" relative="1" as="geometry">
            <mxPoint x="36.28" y="1052" as="sourcePoint" />
            <mxPoint x="-157.99999999999997" y="956.3" as="targetPoint" />
          </mxGeometry>
        </mxCell>
        <mxCell id="c_D3GYiyTXU1Lb1RWGgn-51" value="" style="endArrow=classic;startArrow=classic;html=1;rounded=0;fontSize=23;shape=flexArrow;entryX=0.92;entryY=0.5;entryDx=0;entryDy=0;entryPerimeter=0;exitX=0.1;exitY=0.396;exitDx=0;exitDy=0;exitPerimeter=0;" edge="1" parent="WIyWlLk6GJQsqaUBKTNV-1" source="c_D3GYiyTXU1Lb1RWGgn-40">
          <mxGeometry width="50" height="50" relative="1" as="geometry">
            <mxPoint x="31.28" y="1073.7" as="sourcePoint" />
            <mxPoint x="-162.99999999999997" y="978" as="targetPoint" />
          </mxGeometry>
        </mxCell>
        <mxCell id="c_D3GYiyTXU1Lb1RWGgn-107" style="edgeStyle=orthogonalEdgeStyle;rounded=0;orthogonalLoop=1;jettySize=auto;html=1;exitX=0;exitY=0;exitDx=0;exitDy=52.5;exitPerimeter=0;fontSize=12;" edge="1" parent="WIyWlLk6GJQsqaUBKTNV-1" source="c_D3GYiyTXU1Lb1RWGgn-52">
          <mxGeometry relative="1" as="geometry">
            <mxPoint x="105.75" y="214.5" as="targetPoint" />
          </mxGeometry>
        </mxCell>
        <mxCell id="c_D3GYiyTXU1Lb1RWGgn-52" value="" style="shape=cylinder3;whiteSpace=wrap;html=1;boundedLbl=1;backgroundOutline=1;size=15;fontSize=23;" vertex="1" parent="WIyWlLk6GJQsqaUBKTNV-1">
          <mxGeometry x="325" y="162" width="60" height="80" as="geometry" />
        </mxCell>
        <mxCell id="c_D3GYiyTXU1Lb1RWGgn-60" style="edgeStyle=orthogonalEdgeStyle;rounded=0;orthogonalLoop=1;jettySize=auto;html=1;exitX=0.25;exitY=1;exitDx=0;exitDy=0;entryX=0.25;entryY=0;entryDx=0;entryDy=0;fontSize=23;" edge="1" parent="WIyWlLk6GJQsqaUBKTNV-1" source="c_D3GYiyTXU1Lb1RWGgn-53" target="c_D3GYiyTXU1Lb1RWGgn-54">
          <mxGeometry relative="1" as="geometry" />
        </mxCell>
        <mxCell id="c_D3GYiyTXU1Lb1RWGgn-53" value="" style="rounded=1;whiteSpace=wrap;html=1;fontSize=23;" vertex="1" parent="WIyWlLk6GJQsqaUBKTNV-1">
          <mxGeometry x="-16" y="79" width="120" height="60" as="geometry" />
        </mxCell>
        <mxCell id="c_D3GYiyTXU1Lb1RWGgn-105" style="edgeStyle=orthogonalEdgeStyle;rounded=0;orthogonalLoop=1;jettySize=auto;html=1;exitX=0.5;exitY=0;exitDx=0;exitDy=0;entryX=0.5;entryY=1;entryDx=0;entryDy=0;fontSize=12;" edge="1" parent="WIyWlLk6GJQsqaUBKTNV-1" source="c_D3GYiyTXU1Lb1RWGgn-54" target="c_D3GYiyTXU1Lb1RWGgn-53">
          <mxGeometry relative="1" as="geometry" />
        </mxCell>
        <mxCell id="c_D3GYiyTXU1Lb1RWGgn-106" style="edgeStyle=orthogonalEdgeStyle;rounded=0;orthogonalLoop=1;jettySize=auto;html=1;exitX=1;exitY=0.5;exitDx=0;exitDy=0;fontSize=12;" edge="1" parent="WIyWlLk6GJQsqaUBKTNV-1" source="c_D3GYiyTXU1Lb1RWGgn-54">
          <mxGeometry relative="1" as="geometry">
            <mxPoint x="324.5" y="234.5" as="targetPoint" />
          </mxGeometry>
        </mxCell>
        <mxCell id="c_D3GYiyTXU1Lb1RWGgn-54" value="" style="rounded=1;whiteSpace=wrap;html=1;fontSize=23;" vertex="1" parent="WIyWlLk6GJQsqaUBKTNV-1">
          <mxGeometry x="-16" y="204" width="120" height="60" as="geometry" />
        </mxCell>
        <mxCell id="c_D3GYiyTXU1Lb1RWGgn-55" value="Controller" style="text;html=1;strokeColor=none;fillColor=none;align=center;verticalAlign=middle;whiteSpace=wrap;rounded=0;fontSize=23;" vertex="1" parent="WIyWlLk6GJQsqaUBKTNV-1">
          <mxGeometry x="11" y="94" width="60" height="30" as="geometry" />
        </mxCell>
        <mxCell id="c_D3GYiyTXU1Lb1RWGgn-56" value="Model" style="text;html=1;strokeColor=none;fillColor=none;align=center;verticalAlign=middle;whiteSpace=wrap;rounded=0;fontSize=23;" vertex="1" parent="WIyWlLk6GJQsqaUBKTNV-1">
          <mxGeometry x="8" y="219" width="60" height="30" as="geometry" />
        </mxCell>
        <mxCell id="c_D3GYiyTXU1Lb1RWGgn-69" style="edgeStyle=orthogonalEdgeStyle;rounded=0;orthogonalLoop=1;jettySize=auto;html=1;exitX=0.5;exitY=0;exitDx=0;exitDy=0;fontSize=23;" edge="1" parent="WIyWlLk6GJQsqaUBKTNV-1" source="c_D3GYiyTXU1Lb1RWGgn-62" target="c_D3GYiyTXU1Lb1RWGgn-64">
          <mxGeometry relative="1" as="geometry">
            <Array as="points">
              <mxPoint x="-114" y="-263" />
            </Array>
          </mxGeometry>
        </mxCell>
        <mxCell id="c_D3GYiyTXU1Lb1RWGgn-76" style="edgeStyle=orthogonalEdgeStyle;rounded=0;orthogonalLoop=1;jettySize=auto;html=1;exitX=0;exitY=0.75;exitDx=0;exitDy=0;entryX=0.998;entryY=0.802;entryDx=0;entryDy=0;entryPerimeter=0;fontSize=23;" edge="1" parent="WIyWlLk6GJQsqaUBKTNV-1" source="c_D3GYiyTXU1Lb1RWGgn-62" target="c_D3GYiyTXU1Lb1RWGgn-63">
          <mxGeometry relative="1" as="geometry" />
        </mxCell>
        <mxCell id="c_D3GYiyTXU1Lb1RWGgn-89" style="edgeStyle=orthogonalEdgeStyle;rounded=0;orthogonalLoop=1;jettySize=auto;html=1;exitX=1;exitY=0.25;exitDx=0;exitDy=0;fontSize=12;entryX=0.098;entryY=0.5;entryDx=0;entryDy=0;entryPerimeter=0;" edge="1" parent="WIyWlLk6GJQsqaUBKTNV-1" source="c_D3GYiyTXU1Lb1RWGgn-62" target="c_D3GYiyTXU1Lb1RWGgn-66">
          <mxGeometry relative="1" as="geometry">
            <mxPoint x="182" y="-258" as="targetPoint" />
            <Array as="points" />
          </mxGeometry>
        </mxCell>
        <mxCell id="c_D3GYiyTXU1Lb1RWGgn-62" value="" style="rounded=1;whiteSpace=wrap;html=1;fontSize=23;" vertex="1" parent="WIyWlLk6GJQsqaUBKTNV-1">
          <mxGeometry x="-170" y="-263" width="120" height="60" as="geometry" />
        </mxCell>
        <mxCell id="c_D3GYiyTXU1Lb1RWGgn-75" style="edgeStyle=orthogonalEdgeStyle;rounded=0;orthogonalLoop=1;jettySize=auto;html=1;fontSize=23;entryX=-0.005;entryY=0.439;entryDx=0;entryDy=0;entryPerimeter=0;" edge="1" parent="WIyWlLk6GJQsqaUBKTNV-1" source="c_D3GYiyTXU1Lb1RWGgn-63" target="c_D3GYiyTXU1Lb1RWGgn-62">
          <mxGeometry relative="1" as="geometry">
            <mxPoint x="-205.42105263157873" y="-250.84210526315792" as="targetPoint" />
          </mxGeometry>
        </mxCell>
        <mxCell id="c_D3GYiyTXU1Lb1RWGgn-79" style="edgeStyle=orthogonalEdgeStyle;rounded=0;orthogonalLoop=1;jettySize=auto;html=1;exitX=0.75;exitY=0;exitDx=0;exitDy=0;entryX=0;entryY=0.75;entryDx=0;entryDy=0;fontSize=23;" edge="1" parent="WIyWlLk6GJQsqaUBKTNV-1" source="c_D3GYiyTXU1Lb1RWGgn-63" target="c_D3GYiyTXU1Lb1RWGgn-64">
          <mxGeometry relative="1" as="geometry">
            <Array as="points">
              <mxPoint x="-422" y="-266" />
              <mxPoint x="-422" y="-419" />
              <mxPoint x="-193" y="-419" />
            </Array>
          </mxGeometry>
        </mxCell>
        <mxCell id="c_D3GYiyTXU1Lb1RWGgn-63" value="" style="rounded=1;whiteSpace=wrap;html=1;fontSize=23;" vertex="1" parent="WIyWlLk6GJQsqaUBKTNV-1">
          <mxGeometry x="-477.5" y="-266" width="120" height="60" as="geometry" />
        </mxCell>
        <mxCell id="c_D3GYiyTXU1Lb1RWGgn-64" value="" style="rounded=1;whiteSpace=wrap;html=1;fontSize=23;" vertex="1" parent="WIyWlLk6GJQsqaUBKTNV-1">
          <mxGeometry x="-174" y="-463" width="120" height="60" as="geometry" />
        </mxCell>
        <mxCell id="c_D3GYiyTXU1Lb1RWGgn-66" value="" style="sketch=0;html=1;dashed=0;whitespace=wrap;fillColor=#2875E2;strokeColor=#ffffff;points=[[0.005,0.63,0],[0.1,0.2,0],[0.9,0.2,0],[0.5,0,0],[0.995,0.63,0],[0.72,0.99,0],[0.5,1,0],[0.28,0.99,0]];shape=mxgraph.kubernetes.icon;prIcon=api" vertex="1" parent="WIyWlLk6GJQsqaUBKTNV-1">
          <mxGeometry x="203" y="-283" width="80" height="70" as="geometry" />
        </mxCell>
        <mxCell id="c_D3GYiyTXU1Lb1RWGgn-73" value="Model" style="text;html=1;strokeColor=none;fillColor=none;align=center;verticalAlign=middle;whiteSpace=wrap;rounded=0;fontSize=23;" vertex="1" parent="WIyWlLk6GJQsqaUBKTNV-1">
          <mxGeometry x="-144" y="-448" width="60" height="30" as="geometry" />
        </mxCell>
        <mxCell id="c_D3GYiyTXU1Lb1RWGgn-74" value="Controller" style="text;html=1;strokeColor=none;fillColor=none;align=center;verticalAlign=middle;whiteSpace=wrap;rounded=0;fontSize=23;" vertex="1" parent="WIyWlLk6GJQsqaUBKTNV-1">
          <mxGeometry x="-140" y="-248" width="60" height="30" as="geometry" />
        </mxCell>
        <mxCell id="c_D3GYiyTXU1Lb1RWGgn-80" value="&lt;font style=&quot;font-size: 12px;&quot;&gt;Use Model&lt;/font&gt;" style="text;html=1;strokeColor=none;fillColor=none;align=center;verticalAlign=middle;whiteSpace=wrap;rounded=0;fontSize=23;" vertex="1" parent="WIyWlLk6GJQsqaUBKTNV-1">
          <mxGeometry x="-350" y="-445" width="121" height="30" as="geometry" />
        </mxCell>
        <mxCell id="c_D3GYiyTXU1Lb1RWGgn-81" value="Use Model" style="text;html=1;strokeColor=none;fillColor=none;align=center;verticalAlign=middle;whiteSpace=wrap;rounded=0;fontSize=23;rotation=-90;" vertex="1" parent="WIyWlLk6GJQsqaUBKTNV-1">
          <mxGeometry x="-189" y="-346" width="121" height="30" as="geometry" />
        </mxCell>
        <mxCell id="c_D3GYiyTXU1Lb1RWGgn-83" value="&lt;font style=&quot;font-size: 12px;&quot;&gt;HttpRequest&lt;/font&gt;" style="text;html=1;strokeColor=none;fillColor=none;align=center;verticalAlign=middle;whiteSpace=wrap;rounded=0;fontSize=23;" vertex="1" parent="WIyWlLk6GJQsqaUBKTNV-1">
          <mxGeometry x="4" y="-278" width="121" height="30" as="geometry" />
        </mxCell>
        <mxCell id="c_D3GYiyTXU1Lb1RWGgn-84" value="&lt;font style=&quot;font-size: 12px;&quot;&gt;ResponseMessage (json content)&lt;/font&gt;" style="text;html=1;strokeColor=none;fillColor=none;align=center;verticalAlign=middle;whiteSpace=wrap;rounded=0;fontSize=23;" vertex="1" parent="WIyWlLk6GJQsqaUBKTNV-1">
          <mxGeometry x="-11" y="-236" width="181" height="30" as="geometry" />
        </mxCell>
        <mxCell id="c_D3GYiyTXU1Lb1RWGgn-85" value="&lt;font style=&quot;font-size: 12px;&quot;&gt;Action call&lt;/font&gt;" style="text;html=1;strokeColor=none;fillColor=none;align=center;verticalAlign=middle;whiteSpace=wrap;rounded=0;fontSize=23;" vertex="1" parent="WIyWlLk6GJQsqaUBKTNV-1">
          <mxGeometry x="-344" y="-263" width="121" height="30" as="geometry" />
        </mxCell>
        <mxCell id="c_D3GYiyTXU1Lb1RWGgn-86" value="&lt;span style=&quot;font-size: 12px;&quot;&gt;Redirect to View&lt;/span&gt;" style="text;html=1;strokeColor=none;fillColor=none;align=center;verticalAlign=middle;whiteSpace=wrap;rounded=0;fontSize=23;" vertex="1" parent="WIyWlLk6GJQsqaUBKTNV-1">
          <mxGeometry x="-330" y="-227" width="121" height="30" as="geometry" />
        </mxCell>
        <mxCell id="c_D3GYiyTXU1Lb1RWGgn-90" value="" style="endArrow=classic;html=1;rounded=0;fontSize=12;entryX=1;entryY=0.5;entryDx=0;entryDy=0;exitX=0.114;exitY=0.689;exitDx=0;exitDy=0;exitPerimeter=0;" edge="1" parent="WIyWlLk6GJQsqaUBKTNV-1" source="c_D3GYiyTXU1Lb1RWGgn-66" target="c_D3GYiyTXU1Lb1RWGgn-62">
          <mxGeometry width="50" height="50" relative="1" as="geometry">
            <mxPoint x="133" y="-158" as="sourcePoint" />
            <mxPoint x="183" y="-208" as="targetPoint" />
          </mxGeometry>
        </mxCell>
        <mxCell id="c_D3GYiyTXU1Lb1RWGgn-92" value="View" style="text;html=1;strokeColor=none;fillColor=none;align=center;verticalAlign=middle;whiteSpace=wrap;rounded=0;fontSize=12;" vertex="1" parent="WIyWlLk6GJQsqaUBKTNV-1">
          <mxGeometry x="-455" y="-251" width="60" height="30" as="geometry" />
        </mxCell>
        <mxCell id="c_D3GYiyTXU1Lb1RWGgn-93" value="" style="rhombus;whiteSpace=wrap;html=1;fontSize=12;" vertex="1" parent="WIyWlLk6GJQsqaUBKTNV-1">
          <mxGeometry x="343" y="349.7" width="80" height="80" as="geometry" />
        </mxCell>
        <mxCell id="c_D3GYiyTXU1Lb1RWGgn-100" style="edgeStyle=orthogonalEdgeStyle;rounded=0;orthogonalLoop=1;jettySize=auto;html=1;exitX=0.036;exitY=0.951;exitDx=0;exitDy=0;entryX=0.995;entryY=0.766;entryDx=0;entryDy=0;entryPerimeter=0;fontSize=12;exitPerimeter=0;" edge="1" parent="WIyWlLk6GJQsqaUBKTNV-1" source="c_D3GYiyTXU1Lb1RWGgn-94" target="c_D3GYiyTXU1Lb1RWGgn-22">
          <mxGeometry relative="1" as="geometry">
            <Array as="points" />
          </mxGeometry>
        </mxCell>
        <mxCell id="c_D3GYiyTXU1Lb1RWGgn-103" style="edgeStyle=orthogonalEdgeStyle;rounded=0;orthogonalLoop=1;jettySize=auto;html=1;entryX=0.067;entryY=0.445;entryDx=0;entryDy=0;entryPerimeter=0;fontSize=12;" edge="1" parent="WIyWlLk6GJQsqaUBKTNV-1" source="c_D3GYiyTXU1Lb1RWGgn-93" target="c_D3GYiyTXU1Lb1RWGgn-7">
          <mxGeometry relative="1" as="geometry">
            <mxPoint x="417" y="382" as="sourcePoint" />
            <Array as="points">
              <mxPoint x="453" y="384" />
            </Array>
          </mxGeometry>
        </mxCell>
        <mxCell id="c_D3GYiyTXU1Lb1RWGgn-94" value="HTTP" style="text;html=1;strokeColor=none;fillColor=none;align=center;verticalAlign=middle;whiteSpace=wrap;rounded=0;fontSize=12;" vertex="1" parent="WIyWlLk6GJQsqaUBKTNV-1">
          <mxGeometry x="353" y="374.7" width="60" height="30" as="geometry" />
        </mxCell>
        <mxCell id="c_D3GYiyTXU1Lb1RWGgn-118" style="edgeStyle=orthogonalEdgeStyle;rounded=0;orthogonalLoop=1;jettySize=auto;html=1;exitX=1;exitY=0.5;exitDx=0;exitDy=0;fontSize=12;" edge="1" parent="WIyWlLk6GJQsqaUBKTNV-1" source="c_D3GYiyTXU1Lb1RWGgn-108">
          <mxGeometry relative="1" as="geometry">
            <mxPoint x="2060" y="-351.55555555555566" as="targetPoint" />
            <Array as="points">
              <mxPoint x="1903" y="-352" />
              <mxPoint x="1903" y="-352" />
            </Array>
          </mxGeometry>
        </mxCell>
        <mxCell id="c_D3GYiyTXU1Lb1RWGgn-108" value="" style="rounded=1;whiteSpace=wrap;html=1;fontSize=12;" vertex="1" parent="WIyWlLk6GJQsqaUBKTNV-1">
          <mxGeometry x="890" y="-567" width="875" height="430" as="geometry" />
        </mxCell>
        <mxCell id="c_D3GYiyTXU1Lb1RWGgn-120" style="edgeStyle=orthogonalEdgeStyle;rounded=0;orthogonalLoop=1;jettySize=auto;html=1;exitX=0;exitY=0.75;exitDx=0;exitDy=0;fontSize=12;" edge="1" parent="WIyWlLk6GJQsqaUBKTNV-1" source="c_D3GYiyTXU1Lb1RWGgn-109">
          <mxGeometry relative="1" as="geometry">
            <mxPoint x="1765.5806451612902" y="-234.38709677419365" as="targetPoint" />
            <Array as="points">
              <mxPoint x="1943" y="-234" />
              <mxPoint x="1943" y="-234" />
            </Array>
          </mxGeometry>
        </mxCell>
        <mxCell id="c_D3GYiyTXU1Lb1RWGgn-109" value="" style="rounded=1;whiteSpace=wrap;html=1;fontSize=12;" vertex="1" parent="WIyWlLk6GJQsqaUBKTNV-1">
          <mxGeometry x="2063" y="-557" width="875" height="430" as="geometry" />
        </mxCell>
        <mxCell id="c_D3GYiyTXU1Lb1RWGgn-110" value="" style="rounded=1;whiteSpace=wrap;html=1;fontSize=12;" vertex="1" parent="WIyWlLk6GJQsqaUBKTNV-1">
          <mxGeometry x="930" y="-491.5" width="275" height="117" as="geometry" />
        </mxCell>
        <mxCell id="c_D3GYiyTXU1Lb1RWGgn-111" value="" style="rounded=1;whiteSpace=wrap;html=1;fontSize=12;" vertex="1" parent="WIyWlLk6GJQsqaUBKTNV-1">
          <mxGeometry x="1208" y="-389.5" width="275" height="117" as="geometry" />
        </mxCell>
        <mxCell id="c_D3GYiyTXU1Lb1RWGgn-112" value="" style="rounded=1;whiteSpace=wrap;html=1;fontSize=12;" vertex="1" parent="WIyWlLk6GJQsqaUBKTNV-1">
          <mxGeometry x="1473" y="-275" width="275" height="117" as="geometry" />
        </mxCell>
        <mxCell id="c_D3GYiyTXU1Lb1RWGgn-113" value="" style="rounded=1;whiteSpace=wrap;html=1;fontSize=12;" vertex="1" parent="WIyWlLk6GJQsqaUBKTNV-1">
          <mxGeometry x="2190" y="-392" width="275" height="117" as="geometry" />
        </mxCell>
        <mxCell id="c_D3GYiyTXU1Lb1RWGgn-114" value="" style="rounded=1;whiteSpace=wrap;html=1;fontSize=12;" vertex="1" parent="WIyWlLk6GJQsqaUBKTNV-1">
          <mxGeometry x="2548" y="-389.5" width="275" height="117" as="geometry" />
        </mxCell>
        <mxCell id="c_D3GYiyTXU1Lb1RWGgn-116" style="edgeStyle=orthogonalEdgeStyle;rounded=0;orthogonalLoop=1;jettySize=auto;html=1;exitX=0.75;exitY=1;exitDx=0;exitDy=0;entryX=0;entryY=0.75;entryDx=0;entryDy=0;fontSize=12;" edge="1" parent="WIyWlLk6GJQsqaUBKTNV-1" source="c_D3GYiyTXU1Lb1RWGgn-115" target="c_D3GYiyTXU1Lb1RWGgn-108">
          <mxGeometry relative="1" as="geometry" />
        </mxCell>
        <mxCell id="c_D3GYiyTXU1Lb1RWGgn-115" value="" style="aspect=fixed;perimeter=ellipsePerimeter;html=1;align=center;shadow=0;dashed=0;spacingTop=3;image;image=img/lib/active_directory/laptop_client.svg;fontSize=12;" vertex="1" parent="WIyWlLk6GJQsqaUBKTNV-1">
          <mxGeometry x="400" y="-959" width="223.2" height="248" as="geometry" />
        </mxCell>
      </root>
    </mxGraphModel>
  </diagram>
</mxfile>
